<svg xmlns="http://www.w3.org/2000/svg" width="40" height="40" fill="none" viewBox="0 0 40 40">
  <path fill="#F7F7F7" d="M9.031.5a1.219 1.219 0 0 1 1.219 1.219v1.218h19.5V1.72a1.219 1.219 0 1 1 2.438 0v1.218h2.437A4.875 4.875 0 0 1 39.5 7.814v26.812a4.875 4.875 0 0 1-4.875 4.875H5.375A4.875 4.875 0 0 1 .5 34.625V7.812a4.875 4.875 0 0 1 4.875-4.875h2.438V1.72A1.219 1.219 0 0 1 9.03.5ZM5.375 5.375a2.437 2.437 0 0 0-2.438 2.438v26.812a2.437 2.437 0 0 0 2.438 2.438h29.25a2.438 2.438 0 0 0 2.438-2.438V7.812a2.438 2.438 0 0 0-2.438-2.437H5.375Z"/>
</svg>
